<?xml version="1.0" encoding="UTF-8" standalone="no"?>
<svg width="465px" height="382px" viewBox="0 0 465 382" version="1.1" xmlns="http://www.w3.org/2000/svg" xmlns:xlink="http://www.w3.org/1999/xlink" xmlns:sketch="http://www.bohemiancoding.com/sketch/ns">
    <!-- Generator: Sketch 3.4 (15575) - http://www.bohemiancoding.com/sketch -->
    <title>Artboard 1</title>
    <desc>Created with Sketch.</desc>
    <defs></defs>
    <g id="Western-Digital-Logo" stroke="none" stroke-width="1" fill="none" fill-rule="evenodd" sketch:type="MSPage">
        <g id="Artboard-1" sketch:type="MSArtboardGroup" fill="#FFFFFF">
            <path d="M51.848,271.556 L53.936,278 L60.992,278 L52.028,253.16 L44.108,253.16 L35.144,278 L42.02,278 L44.108,271.556 L51.848,271.556 Z M47.996,258.884 L50.3,266.516 L45.692,266.516 L47.996,258.884 Z M103.832,253.16 L97.208,253.16 L93.608,273.032 L90.476,253.52 L81.188,253.52 L77.912,272.96 L74.6,253.16 L67.724,253.16 L73.7,278 L82.376,278 L85.724,258.668 L88.856,278 L97.496,278 L103.832,253.16 Z M123.344,268.136 C123.344,263.168 120.104,258.272 113.696,258.272 C107.288,258.272 103.436,262.844 103.436,268.46 C103.436,275.228 107.828,278.504 113.336,278.504 C118.268,278.504 121.868,276.056 122.984,271.7 L116.612,271.7 C116.36,273.176 115.244,274.112 113.408,274.112 C111.572,274.112 110.168,273.212 109.844,270.008 L123.236,270.008 C123.308,269.36 123.344,268.712 123.344,268.136 L123.344,268.136 Z M113.372,262.664 C115.1,262.664 116.216,263.78 116.576,266.048 L110.06,266.048 C110.492,263.672 111.68,262.664 113.372,262.664 L113.372,262.664 Z M134.072,258.272 C128.96,258.272 125.648,260.648 125.648,264.464 C125.648,267.74 127.844,269.432 131.516,270.296 C134.936,271.088 136.16,271.772 136.16,272.996 C136.16,274.004 135.26,274.472 134.108,274.472 C132.74,274.472 131.588,273.5 131.228,272.024 L124.856,272.024 C125.36,276.344 128.924,278.504 134.144,278.504 C138.788,278.504 142.64,276.596 142.64,272.492 C142.64,268.784 140.156,267.272 136.664,266.408 C132.992,265.508 132.128,264.788 132.128,263.708 C132.128,262.88 132.776,262.304 133.676,262.304 C134.828,262.304 135.476,263.06 135.764,264.392 L142.136,264.392 C141.632,260.9 138.86,258.272 134.072,258.272 L134.072,258.272 Z M152.936,262.952 L157.184,262.952 L157.184,258.92 L152.936,258.92 L152.936,253.952 L146.456,253.952 L146.456,258.92 L143.396,258.92 L143.396,262.952 L146.456,262.952 L146.456,270.98 C146.456,272.06 146.456,272.96 146.528,274.076 C146.744,277.028 148.184,278.504 152.972,278.504 C154.34,278.504 155.528,278.396 156.788,278.18 L156.788,274.148 C153.728,274.292 153.116,273.86 152.972,271.916 C152.936,271.412 152.936,270.692 152.936,270.044 L152.936,262.952 Z M178.172,268.136 C178.172,263.168 174.932,258.272 168.524,258.272 C162.116,258.272 158.264,262.844 158.264,268.46 C158.264,275.228 162.656,278.504 168.164,278.504 C173.096,278.504 176.696,276.056 177.812,271.7 L171.44,271.7 C171.188,273.176 170.072,274.112 168.236,274.112 C166.4,274.112 164.996,273.212 164.672,270.008 L178.064,270.008 C178.136,269.36 178.172,268.712 178.172,268.136 L178.172,268.136 Z M168.2,262.664 C169.928,262.664 171.044,263.78 171.404,266.048 L164.888,266.048 C165.32,263.672 166.508,262.664 168.2,262.664 L168.2,262.664 Z M192.608,258.272 C191.384,258.272 189.872,258.812 188.828,259.964 L187.46,262.664 L187.46,258.776 L180.98,258.776 L180.98,278 L187.46,278 L187.46,270.944 C187.46,265.148 189.224,263.348 194.084,263.672 L194.084,258.38 C193.616,258.308 193.22,258.272 192.608,258.272 L192.608,258.272 Z M215.432,263.492 C214.928,260.144 212.588,258.272 208.628,258.272 C206.864,258.272 205.496,258.668 204.308,259.388 L202.58,261.764 L202.58,258.776 L196.1,258.776 L196.1,278 L202.58,278 L202.58,268.928 C202.58,264.572 203.984,262.664 205.964,262.664 C207.908,262.664 208.916,263.744 209.06,265.58 C209.132,266.552 209.132,267.596 209.132,268.208 L209.132,278 L215.612,278 L215.612,267.128 C215.612,265.58 215.576,264.464 215.432,263.492 L215.432,263.492 Z M50.444,295.304 C49.184,295.16 48.608,295.16 47.276,295.16 L37.88,295.16 L37.88,320 L47.276,320 C48.608,320 49.184,320 50.444,319.856 C56.204,319.208 60.956,315.032 60.956,307.256 C60.956,299.48 56.204,295.952 50.444,295.304 L50.444,295.304 Z M48.716,314.888 C47.888,314.96 47.312,314.96 46.376,314.96 L44.36,314.96 L44.36,300.2 L46.376,300.2 C47.312,300.2 47.888,300.2 48.716,300.272 C51.956,300.56 54.188,302.936 54.188,307.364 C54.188,311.792 51.956,314.6 48.716,314.888 L48.716,314.888 Z M67.148,292.964 C65.132,292.964 63.8,294.188 63.8,296.132 C63.8,298.076 65.132,299.3 67.148,299.3 C69.164,299.3 70.496,298.076 70.496,296.132 C70.496,294.188 69.164,292.964 67.148,292.964 L67.148,292.964 Z M70.388,320 L70.388,300.776 L63.908,300.776 L63.908,320 L70.388,320 Z M94.472,300.776 L87.992,300.776 L87.992,303.26 L86.732,301.208 C85.76,300.632 83.888,300.272 82.304,300.272 C77.372,300.272 73.196,303.692 73.196,310.532 C73.196,316.22 76.796,319.784 82.016,319.784 C83.96,319.784 85.472,319.388 86.552,318.596 L87.992,316.472 L87.992,317.012 C87.992,318.056 87.956,318.956 87.92,319.532 C87.74,322.124 85.976,323.168 83.564,323.168 C81.548,323.168 80.072,322.448 79.928,321.188 L79.892,320.828 L73.628,320.828 L73.664,321.188 C74.132,325.58 77.624,327.92 83.384,327.92 C89.9,327.92 94.22,325.112 94.436,318.812 C94.472,317.768 94.472,316.292 94.472,315.104 L94.472,300.776 Z M83.888,315.392 C81.62,315.392 79.82,313.664 79.82,310.064 C79.82,306.14 81.548,304.664 84.068,304.664 C86.012,304.664 87.992,305.96 87.992,309.812 L87.992,309.92 C87.992,313.952 86.264,315.392 83.888,315.392 L83.888,315.392 Z M101.6,292.964 C99.584,292.964 98.252,294.188 98.252,296.132 C98.252,298.076 99.584,299.3 101.6,299.3 C103.616,299.3 104.948,298.076 104.948,296.132 C104.948,294.188 103.616,292.964 101.6,292.964 L101.6,292.964 Z M104.84,320 L104.84,300.776 L98.36,300.776 L98.36,320 L104.84,320 Z M116.504,304.952 L120.752,304.952 L120.752,300.92 L116.504,300.92 L116.504,295.952 L110.024,295.952 L110.024,300.92 L106.964,300.92 L106.964,304.952 L110.024,304.952 L110.024,312.98 C110.024,314.06 110.024,314.96 110.096,316.076 C110.312,319.028 111.752,320.504 116.54,320.504 C117.908,320.504 119.096,320.396 120.356,320.18 L120.356,316.148 C117.296,316.292 116.684,315.86 116.54,313.916 C116.504,313.412 116.504,312.692 116.504,312.044 L116.504,304.952 Z M134.396,320 L140.732,320 C140.444,317.876 140.372,316.58 140.372,315.14 L140.372,309.74 C140.372,308.552 140.336,307.436 140.264,306.464 C139.976,302.972 137.888,300.272 131.804,300.272 C126.944,300.272 122.948,302.828 122.912,307.328 L129.032,307.292 C129.14,305.636 130.004,304.664 131.516,304.664 C132.92,304.664 133.712,305.528 133.82,306.5 C133.892,307.112 133.892,307.508 133.892,307.904 L133.892,308.192 L132.668,308.192 C126.152,308.192 122.264,310.712 122.264,314.816 C122.264,318.524 125.252,320.504 128.42,320.504 C130.184,320.504 131.804,320.072 133.172,319.208 L133.964,317.192 L134.396,320 Z M131.084,316.112 C129.788,316.112 128.888,315.464 128.888,314.312 C128.888,312.404 130.976,311.648 133.892,311.864 L133.892,313.124 C133.892,315.14 132.38,316.112 131.084,316.112 L131.084,316.112 Z M150.596,293.54 L144.116,293.54 L144.116,313.196 C144.116,314.636 144.116,315.608 144.188,316.616 C144.332,319.172 146.024,320.36 149.012,320.36 C150.452,320.36 151.604,320.288 152.792,320.18 L152.792,315.788 C151.1,315.86 150.776,315.608 150.668,314.852 C150.596,314.384 150.596,313.988 150.596,313.088 L150.596,293.54 Z M49.22,336.656 C42.488,336.656 36.944,341.12 36.944,349.76 C36.944,358.184 42.308,362.504 48.968,362.504 C55.196,362.504 59.768,359.444 60.38,353.468 L60.416,353.108 L53.936,353.108 L53.864,353.468 C53.324,356.204 51.704,357.752 49.184,357.752 C46.304,357.752 43.712,355.628 43.712,349.364 C43.712,344 46.052,341.408 49.148,341.408 C51.776,341.408 53.396,342.668 53.936,345.332 L54.008,345.692 L60.488,345.692 L60.452,345.332 C59.948,340.436 56.312,336.656 49.22,336.656 L49.22,336.656 Z M72.62,342.272 C66.32,342.272 62.288,346.196 62.288,352.388 C62.288,358.544 66.32,362.504 72.62,362.504 C78.92,362.504 82.952,358.544 82.952,352.388 C82.952,346.196 78.92,342.272 72.62,342.272 L72.62,342.272 Z M72.62,358.112 C70.316,358.112 68.912,356.204 68.912,352.388 C68.912,348.536 70.316,346.664 72.62,346.664 C74.924,346.664 76.328,348.536 76.328,352.388 C76.328,356.204 74.924,358.112 72.62,358.112 L72.62,358.112 Z M116.684,347.132 C116.252,344.504 114.092,342.272 110.24,342.272 C108.476,342.272 107.288,342.668 106.1,343.388 L104.084,346.016 C103.256,343.892 101.204,342.272 97.928,342.272 C96.164,342.272 94.976,342.668 93.788,343.388 L92.24,345.872 L92.24,342.776 L85.76,342.776 L85.76,362 L92.24,362 L92.24,351.848 C92.24,348.572 93.068,346.664 95.156,346.664 C96.848,346.664 97.712,347.744 97.928,349.58 C98.036,350.552 98.072,351.596 98.072,352.208 L98.072,362 L104.552,362 L104.552,351.848 C104.552,348.572 105.38,346.664 107.468,346.664 C109.16,346.664 110.024,347.744 110.24,349.58 C110.348,350.552 110.384,351.596 110.384,352.208 L110.384,362 L116.864,362 L116.864,350.768 C116.864,349.22 116.828,348.104 116.684,347.132 L116.684,347.132 Z M133.352,342.272 C131.408,342.272 129.536,342.668 128.456,343.46 L127.016,345.584 L127.016,342.776 L120.536,342.776 L120.536,369.056 L127.016,369.056 L127.016,359.516 L128.276,361.568 C129.248,362.144 131.12,362.504 132.704,362.504 C137.636,362.504 141.812,358.796 141.812,351.956 C141.812,346.268 138.572,342.272 133.352,342.272 L133.352,342.272 Z M130.94,358.112 C128.996,358.112 127.016,356.816 127.016,352.964 L127.016,352.136 C127.016,348.104 128.744,346.664 131.12,346.664 C133.388,346.664 135.188,348.68 135.188,352.28 C135.188,356.204 133.46,358.112 130.94,358.112 L130.94,358.112 Z M155.888,362 L162.224,362 C161.936,359.876 161.864,358.58 161.864,357.14 L161.864,351.74 C161.864,350.552 161.828,349.436 161.756,348.464 C161.468,344.972 159.38,342.272 153.296,342.272 C148.436,342.272 144.44,344.828 144.404,349.328 L150.524,349.292 C150.632,347.636 151.496,346.664 153.008,346.664 C154.412,346.664 155.204,347.528 155.312,348.5 C155.384,349.112 155.384,349.508 155.384,349.904 L155.384,350.192 L154.16,350.192 C147.644,350.192 143.756,352.712 143.756,356.816 C143.756,360.524 146.744,362.504 149.912,362.504 C151.676,362.504 153.296,362.072 154.664,361.208 L155.456,359.192 L155.888,362 Z M152.576,358.112 C151.28,358.112 150.38,357.464 150.38,356.312 C150.38,354.404 152.468,353.648 155.384,353.864 L155.384,355.124 C155.384,357.14 153.872,358.112 152.576,358.112 L152.576,358.112 Z M185.084,347.492 C184.58,344.144 182.24,342.272 178.28,342.272 C176.516,342.272 175.148,342.668 173.96,343.388 L172.232,345.764 L172.232,342.776 L165.752,342.776 L165.752,362 L172.232,362 L172.232,352.928 C172.232,348.572 173.636,346.664 175.616,346.664 C177.56,346.664 178.568,347.744 178.712,349.58 C178.784,350.552 178.784,351.596 178.784,352.208 L178.784,362 L185.264,362 L185.264,351.128 C185.264,349.58 185.228,348.464 185.084,347.492 L185.084,347.492 Z M209.168,342.776 L202.076,342.776 L198.152,356.852 L194.192,342.776 L186.992,342.776 L194.948,362.864 L194.696,363.404 C194.084,364.772 193.04,365.276 191.528,365.276 C190.88,365.276 190.304,365.276 189.764,365.204 L189.764,369.38 C190.7,369.524 191.456,369.56 192.5,369.56 C197.072,369.56 199.16,368.084 201.572,362 L209.168,342.776 Z" id="A-Western-Digital-Co" sketch:type="MSShapeGroup"></path>
            <path d="M437.958984,54.84375 C434.26756,54.84375 431.09474,53.4990369 428.44043,50.8095703 C425.78612,48.1201037 424.458984,44.912128 424.458984,41.1855469 C424.458984,37.4120905 425.794909,34.1923961 428.466797,31.5263672 C431.138685,28.8603382 434.35545,27.5273438 438.117188,27.5273438 C441.878925,27.5273438 445.09569,28.8603382 447.767578,31.5263672 C450.439466,34.1923961 451.775391,37.4003719 451.775391,41.1503906 C451.775391,44.9707222 450.436537,48.2079945 447.758789,50.8623047 C445.081041,53.5166148 441.814472,54.84375 437.958984,54.84375 L437.958984,54.84375 Z M437.958984,52.5761719 C441.673847,52.5761719 444.626942,51.2109512 446.818359,48.4804688 C448.611337,46.2538951 449.507812,43.8164195 449.507812,41.1679688 C449.507812,38.5429556 448.611337,36.1171986 446.818359,33.890625 C444.626942,31.1601426 441.726581,29.7949219 438.117188,29.7949219 C434.507794,29.7949219 431.607433,31.1601426 429.416016,33.890625 C427.623038,36.1171986 426.726562,38.5488149 426.726562,41.1855469 C426.726562,44.2793123 427.836903,46.9511606 430.057617,49.2011719 C432.278331,51.4511831 434.912094,52.5761719 437.958984,52.5761719 L437.958984,52.5761719 Z M432.685547,48.5332031 L432.685547,33.7675781 L438.609375,33.7675781 C441.914079,33.7675781 443.566406,34.9863159 443.566406,37.4238281 C443.566406,39.3808692 442.517589,40.7871051 440.419922,41.6425781 L444.761719,48.5332031 L440.912109,48.5332031 L437.589844,42.5039062 L435.708984,42.5039062 L435.708984,48.5332031 L432.685547,48.5332031 Z M435.708984,40.4824219 L436.5,40.4824219 C439.042981,40.4824219 440.314453,39.5800871 440.314453,37.7753906 C440.314453,36.4628841 439.171886,35.8066406 436.886719,35.8066406 L435.708984,35.8066406 L435.708984,40.4824219 Z" id="®" sketch:type="MSShapeGroup"></path>
            <g id="W-+-D" sketch:type="MSLayerGroup" transform="translate(22.000000, 28.000000)">
                <g sketch:type="MSShapeGroup">
                    <path d="M288.952,1.28 L231.64,1.28 L177.208,157.952 L181.528,4.16 L106.936,4.16 L57.112,155.36 L53.368,1.28 L0.088,1.28 L14.776,200 L84.184,200 L134.872,54.56 L134.872,200 L203.992,200 L288.952,1.28 Z" id="W"></path>
                    <path d="M332.61,1.746 C322.784,0.59 315.27,0.59 304.866,0.59 L232.327,0.59 L197.069,200 L272.209,200 C282.902,200 287.526,200 297.93,199.133 C367.868,192.486 401.97,143.356 401.97,85.267 C401.97,32.091 372.203,6.37 332.61,1.746 L332.61,1.746 Z M292.728,158.962 C286.081,159.54 281.457,159.54 273.943,159.54 L256.314,159.54 L277.122,41.05 L294.462,41.05 C301.976,41.05 306.6,41.05 313.247,41.628 C334.633,43.651 347.06,56.656 347.06,86.712 C347.06,123.704 330.009,155.494 292.728,158.962 L292.728,158.962 Z" id="D"></path>
                </g>
            </g>
        </g>
    </g>
</svg>